<svg width="10" height="10" viewBox="0 0 10 10" fill="none" xmlns="http://www.w3.org/2000/svg">
<path fill-rule="evenodd" clip-rule="evenodd" d="M0.725995 7.78791C0.333523 8.17648 0.333523 8.80647 0.725995 9.19503C1.11847 9.5836 1.75479 9.5836 2.14726 9.19503L4.96331 6.407L7.851 9.26595C8.24347 9.65452 8.87979 9.65452 9.27226 9.26595C9.66473 8.87739 9.66473 8.2474 9.27226 7.85883L6.38458 4.99988L9.27226 2.14093C9.66473 1.75237 9.66473 1.12237 9.27226 0.733808C8.87979 0.345241 8.24347 0.345241 7.85099 0.733808L4.96331 3.59276L2.14726 0.804725C1.75479 0.416158 1.11847 0.416158 0.725995 0.804725C0.333523 1.19329 0.333523 1.82328 0.725995 2.21185L3.54205 4.99988L0.725995 7.78791Z" fill="white"/>
</svg>
